<svg viewBox="0 0 100 100" xmlns="http://www.w3.org/2000/svg" xmlns:xlink="http://www.w3.org/1999/xlink" id="Ebene_1" overflow="hidden"><g><g><path d="M73.3121 46.9821 63.3121 46.9821C62.2075 46.9821 61.3121 46.0867 61.3121 44.9821L61.3121 30.9821C61.3121 29.8775 62.2075 28.9821 63.3121 28.9821L73.3121 28.9821C74.4167 28.9821 75.3121 29.8775 75.3121 30.9821L75.3121 44.9821C75.3121 46.0867 74.4167 46.9821 73.3121 46.9821Z" stroke="#A01441" stroke-width="0.4" stroke-linejoin="round" fill="none"/><path d="M61.3121 60.9821 54.3121 60.9821C52.6552 60.9821 51.3121 59.639 51.3121 57.9821L51.3121 41.9821C51.3121 40.3252 52.6552 38.9821 54.3121 38.9821L61.3121 38.9821" stroke="#A01441" stroke-width="0.4" stroke-linejoin="round" fill="none"/><line x1="43.3121" y1="49.9821" x2="51.3121" y2="49.9821" stroke="#A01441" stroke-width="0.4" stroke-linejoin="round" fill="none"/><line x1="65.3121" y1="32.9821" x2="71.3121" y2="32.9821" stroke="#A01441" stroke-width="0.4" stroke-linejoin="round" fill="none"/><line x1="65.3121" y1="36.9821" x2="71.3121" y2="36.9821" stroke="#A01441" stroke-width="0.4" stroke-linejoin="round" fill="none"/><circle cx="68.3121" cy="41.9821" r="1" stroke="#A01441" stroke-width="0.4" stroke-linejoin="round" fill="none"/><path d="M73.3121 70.9821 63.3121 70.9821C62.2075 70.9821 61.3121 70.0867 61.3121 68.9821L61.3121 54.9821C61.3121 53.8775 62.2075 52.9821 63.3121 52.9821L73.3121 52.9821C74.4167 52.9821 75.3121 53.8775 75.3121 54.9821L75.3121 68.9821C75.3121 70.0867 74.4167 70.9821 73.3121 70.9821Z" stroke="#A01441" stroke-width="0.4" stroke-linejoin="round" fill="none"/><line x1="65.3121" y1="56.9821" x2="71.3121" y2="56.9821" stroke="#A01441" stroke-width="0.4" stroke-linejoin="round" fill="none"/><line x1="65.3121" y1="60.9821" x2="71.3121" y2="60.9821" stroke="#A01441" stroke-width="0.4" stroke-linejoin="round" fill="none"/><circle cx="68.3121" cy="65.9821" r="1" stroke="#A01441" stroke-width="0.4" stroke-linejoin="round" fill="none"/><path d="M41.3121 62.9821 27.3121 62.9821C26.2075 62.9821 25.3121 62.0867 25.3121 60.9821L25.3121 38.9821C25.3121 37.8775 26.2075 36.9821 27.3121 36.9821L41.3121 36.9821C42.4167 36.9821 43.3121 37.8775 43.3121 38.9821L43.3121 60.9821C43.3121 62.0867 42.4167 62.9821 41.3121 62.9821Z" stroke="#A01441" stroke-width="0.4" stroke-linejoin="round" fill="none"/><line x1="29.3121" y1="42.9821" x2="39.3121" y2="42.9821" stroke="#A01441" stroke-width="0.4" stroke-linejoin="round" fill="none"/><line x1="29.3121" y1="46.9821" x2="39.3121" y2="46.9821" stroke="#A01441" stroke-width="0.4" stroke-linejoin="round" fill="none"/><circle cx="34.3121" cy="55.9821" r="1" stroke="#A01441" stroke-width="0.4" stroke-linejoin="round" fill="none"/></g><g></g><g></g><g></g><g></g><g></g><g></g></g></svg>