<svg viewBox="0 0 100 100" xmlns="http://www.w3.org/2000/svg" xmlns:xlink="http://www.w3.org/1999/xlink" id="Ebene_1" overflow="hidden"><g><g><line x1="45.4952" y1="70.9981" x2="45.4952" y2="64.9981" stroke="#A01441" stroke-width="0.4" fill="none"/><line x1="59.4952" y1="70.9981" x2="41.4952" y2="70.9981" stroke="#A01441" stroke-width="0.4" fill="none"/><line x1="55.4952" y1="64.9981" x2="55.4952" y2="70.9981" stroke="#A01441" stroke-width="0.4" fill="none"/><path d="M25.4952 28.9981C24.3906 28.9981 23.4952 29.8935 23.4952 30.9981L23.4952 62.9981C23.4952 64.1027 24.3906 64.9981 25.4952 64.9981L75.4952 64.9981C76.5998 64.9981 77.4952 64.1027 77.4952 62.9981L77.4952 30.9981C77.4952 29.8935 76.5998 28.9981 75.4952 28.9981L25.4952 28.9981Z" stroke="#A01441" stroke-width="0.4" fill="none"/><line x1="23.4952" y1="56.9981" x2="77.4952" y2="56.9981" stroke="#A01441" stroke-width="0.4" fill="none"/><line x1="48.4952" y1="60.9981" x2="52.4952" y2="60.9981" stroke="#A01441" stroke-width="0.4" fill="none"/><path d="M47.4952 42.9981 51.4952 42.9981C53.1521 42.9981 54.4952 41.655 54.4952 39.9981L54.4952 39.9981C54.4952 38.3412 53.1521 36.9981 51.4952 36.9981L47.4952 36.9981 47.4952 48.9981 52.4952 48.9981C54.1521 48.9981 55.4952 47.655 55.4952 45.9981L55.4952 45.9981C55.4952 44.3412 54.1521 42.9981 52.4952 42.9981L51.4952 42.9981" stroke="#A01441" stroke-width="0.4" fill="none"/><path d="M33.4952 48.9981 33.4952 40.9981C33.4952 38.789 35.2861 36.9981 37.4952 36.9981L37.4952 36.9981C39.7043 36.9981 41.4952 38.789 41.4952 40.9981L41.4952 48.9981" stroke="#A01441" stroke-width="0.4" fill="none"/><line x1="33.4952" y1="44.9981" x2="41.4952" y2="44.9981" stroke="#A01441" stroke-width="0.4" fill="none"/><path d="M69.3538 39.9981C68.9077 38.2759 67.3569 36.9981 65.4952 36.9981 63.2861 36.9981 61.4952 38.7889 61.4952 40.9981L61.4952 44.9981C61.4952 47.2072 63.2861 48.9981 65.4952 48.9981 67.3568 48.9981 68.9077 47.7203 69.3538 45.9981" stroke="#A01441" stroke-width="0.4" fill="none"/></g><g></g><g></g><g></g><g></g><g></g><g></g><g></g><g></g><g></g><g></g><g></g></g></svg>