<svg viewBox="0 0 100 100" xmlns="http://www.w3.org/2000/svg" xmlns:xlink="http://www.w3.org/1999/xlink" id="Ebene_1" overflow="hidden"><g><g><line x1="47.4268" y1="70.9823" x2="47.4268" y2="64.9823" stroke="#A01441" stroke-width="0.4" fill="none"/><line x1="61.4268" y1="70.9823" x2="43.4268" y2="70.9823" stroke="#A01441" stroke-width="0.4" fill="none"/><line x1="57.4268" y1="64.9823" x2="57.4268" y2="70.9823" stroke="#A01441" stroke-width="0.4" fill="none"/><path d="M39.4268 64.9823 75.4268 64.9823C76.5314 64.9823 77.4268 64.0869 77.4268 62.9823L77.4268 30.9823C77.4268 29.8777 76.5314 28.9823 75.4268 28.9823L29.4268 28.9823C28.3222 28.9823 27.4268 29.8777 27.4268 30.9823L27.4268 44.9823" stroke="#A01441" stroke-width="0.4" fill="none"/><path d="M39.4268 68.9823C39.4268 70.0868 38.5313 70.9823 37.4268 70.9823L25.4268 70.9823C24.3223 70.9823 23.4268 70.0868 23.4268 68.9823L23.4268 46.9823C23.4268 45.8778 24.3223 44.9823 25.4268 44.9823L37.4268 44.9823C38.5313 44.9823 39.4268 45.8778 39.4268 46.9823L39.4268 68.9823Z" stroke="#A01441" stroke-width="0.4" fill="none"/><line x1="30.4268" y1="67.9823" x2="32.4268" y2="67.9823" stroke="#A01441" stroke-width="0.4" fill="none"/><line x1="50.4268" y1="60.9823" x2="54.4268" y2="60.9823" stroke="#A01441" stroke-width="0.4" fill="none"/><rect x="27.4268" y="48.9823" width="8" height="8" stroke="#A01441" stroke-width="0.4" fill="none"/><path d="M43.4268 48.9823 53.4268 48.9823 53.4268 56.9823" stroke="#A01441" stroke-width="0.4" fill="none"/><path d="M33.4268 40.9823 33.4268 32.9823 53.4268 32.9823 53.4268 44.9823 43.4268 44.9823" stroke="#A01441" stroke-width="0.4" fill="none"/><line x1="27.4268" y1="60.9823" x2="35.4268" y2="60.9823" stroke="#A01441" stroke-width="0.4" fill="none"/><line x1="57.4268" y1="36.9823" x2="71.4268" y2="36.9823" stroke="#A01441" stroke-width="0.4" fill="none"/><line x1="57.4268" y1="40.9823" x2="67.4268" y2="40.9823" stroke="#A01441" stroke-width="0.4" fill="none"/><line x1="57.4268" y1="32.9823" x2="71.4268" y2="32.9823" stroke="#A01441" stroke-width="0.4" fill="none"/><line x1="57.4268" y1="52.9823" x2="71.4268" y2="52.9823" stroke="#A01441" stroke-width="0.4" fill="none"/><line x1="39.4268" y1="56.9823" x2="77.4268" y2="56.9823" stroke="#A01441" stroke-width="0.4" fill="none"/><line x1="57.4268" y1="48.9823" x2="71.4268" y2="48.9823" stroke="#A01441" stroke-width="0.4" fill="none"/><line x1="23.4268" y1="64.9823" x2="39.4268" y2="64.9823" stroke="#A01441" stroke-width="0.4" fill="none"/></g><g></g><g></g><g></g><g></g><g></g><g></g><g></g><g></g><g></g><g></g><g></g></g></svg>