<svg viewBox="0 0 100 100" xmlns="http://www.w3.org/2000/svg" xmlns:xlink="http://www.w3.org/1999/xlink" id="Ebene_1" overflow="hidden"><g><g><line x1="22.9268" y1="56.9756" x2="76.9268" y2="56.9756" stroke="#A01441" stroke-width="0.4" fill="none"/><path d="M54.9268 64.9756 54.9268 68.9756 60.9268 72.9756 38.9268 72.9756 44.9268 68.9756 44.9268 64.9756" stroke="#A01441" stroke-width="0.4" fill="none"/><line x1="47.9268" y1="60.9756" x2="51.9268" y2="60.9756" stroke="#A01441" stroke-width="0.4" fill="none"/><path d="M76.9268 62.9756C76.9268 64.0801 76.0313 64.9756 74.9268 64.9756L24.9268 64.9756C23.8223 64.9756 22.9268 64.0801 22.9268 62.9756L22.9268 28.9756C22.9268 27.8711 23.8223 26.9756 24.9268 26.9756L74.9268 26.9756C76.0313 26.9756 76.9268 27.8711 76.9268 28.9756L76.9268 62.9756Z" stroke="#A01441" stroke-width="0.4" fill="none"/><path d="M38.9268 48.9756 32.9268 48.9756 32.9268 40.9756 38.9268 40.9756" stroke="#A01441" stroke-width="0.4" fill="none"/><path d="M64.9268 42.9756 64.9268 42.9756C64.9268 41.8711 64.0313 40.9756 62.9268 40.9756L60.9268 40.9756C59.8223 40.9756 58.9268 41.8711 58.9268 42.9756L58.9268 46.9756C58.9268 48.0801 59.8223 48.9756 60.9268 48.9756L62.9268 48.9756C64.0313 48.9756 64.9268 48.0801 64.9268 46.9756L64.9268 46.9756" stroke="#A01441" stroke-width="0.4" fill="none"/><path d="M48.9268 48.9756 48.9268 40.9756 51.9268 44.9756 54.9268 40.9756 54.9268 48.9756" stroke="#A01441" stroke-width="0.4" fill="none"/><line x1="36.9268" y1="44.9756" x2="32.9268" y2="44.9756" stroke="#A01441" stroke-width="0.4" fill="none"/><line x1="44.9268" y1="42.9756" x2="42.9268" y2="42.9756" stroke="#A01441" stroke-width="0.4" fill="none"/><line x1="44.9268" y1="46.9756" x2="42.9268" y2="46.9756" stroke="#A01441" stroke-width="0.4" fill="none"/><path d="M66.9268 34.9756C66.9268 33.8711 67.8223 32.9756 68.9268 32.9756 70.0313 32.9756 70.9268 33.8711 70.9268 34.9756 70.9268 35.6035 70.6289 36.1992 70.127 36.5752L66.9268 38.9756 70.9268 38.9756" stroke="#A01441" stroke-width="0.4" fill="none"/></g><g></g><g></g><g></g><g></g><g></g><g></g><g></g><g></g><g></g><g></g><g></g></g></svg>