<svg viewBox="0 0 100 100" xmlns="http://www.w3.org/2000/svg" xmlns:xlink="http://www.w3.org/1999/xlink" id="Ebene_1" overflow="hidden"><g><g><circle cx="30.9268" cy="50.9756" r="4" stroke="#A01441" stroke-width="0.4" fill="none"/><path d="M24.9268 60.9756C24.9268 57.6619 27.6131 54.9756 30.9268 54.9756 34.2405 54.9756 36.9268 57.6619 36.9268 60.9756L24.9268 60.9756Z" stroke="#A01441" stroke-width="0.4" fill="none"/><circle cx="49.9268" cy="64.9756" r="4" stroke="#A01441" stroke-width="0.4" fill="none"/><path d="M43.9268 74.9756C43.9268 71.6619 46.6131 68.9756 49.9268 68.9756 53.2405 68.9756 55.9268 71.6619 55.9268 74.9756L43.9268 74.9756Z" stroke="#A01441" stroke-width="0.4" fill="none"/><circle cx="68.9268" cy="50.9756" r="4" stroke="#A01441" stroke-width="0.4" fill="none"/><path d="M62.9268 60.9756C62.9268 57.6619 65.6131 54.9756 68.9268 54.9756 72.2405 54.9756 74.9268 57.6619 74.9268 60.9756L62.9268 60.9756Z" stroke="#A01441" stroke-width="0.4" fill="none"/><path d="M54.9268 50.9756C54.9268 54.2893 57.6131 56.9756 60.9268 56.9756" stroke="#A01441" stroke-width="0.4" fill="none"/><path d="M44.9268 50.9756C44.9268 54.2893 42.2405 56.9756 38.9268 56.9756" stroke="#A01441" stroke-width="0.4" fill="none"/><line x1="49.9268" y1="50.9756" x2="49.9268" y2="56.9756" stroke="#A01441" stroke-width="0.4" fill="none"/><circle cx="49.9268" cy="29.9756" r="5" stroke="#A01441" stroke-width="0.4" fill="none"/><path d="M60.9268 46.9756 60.1253 39.7621C60.0031 38.6623 59.2853 37.719 58.2578 37.308L54.9268 35.9756 49.9268 40.9756 44.9268 35.9756 41.5958 37.308C40.5683 37.719 39.8505 38.6623 39.7283 39.7621L38.9268 46.9756 60.9268 46.9756Z" stroke="#A01441" stroke-width="0.4" fill="none"/></g><g></g><g></g><g></g><g></g><g></g><g></g><g></g><g></g><g></g><g></g><g></g></g></svg>