<svg viewBox="0 0 100 100" xmlns="http://www.w3.org/2000/svg" xmlns:xlink="http://www.w3.org/1999/xlink" id="Ebene_1" overflow="hidden"><g><g><g><path d="M39.4268 33.0823 30.4268 33.0823C28.7699 33.0823 27.4268 34.4254 27.4268 36.0823L27.4268 50.0823C27.4268 51.7392 28.7699 53.0823 30.4268 53.0823L45.4268 53.0823 45.4268 59.0823 51.4268 53.0823 54.4268 53.0823C56.0837 53.0823 57.4268 51.7392 57.4268 50.0823L57.4268 47.0823" stroke="#A01441" stroke-width="0.4" fill="none"/></g><g><path d="M39.4268 44.0823 39.4268 28.0823C39.4268 26.4254 40.7699 25.0823 42.4268 25.0823L70.4268 25.0823C72.0837 25.0823 73.4268 26.4254 73.4268 28.0823L73.4268 44.0823C73.4268 45.7392 72.0837 47.0823 70.4268 47.0823L67.4268 47.0823 67.4268 53.0823 61.4268 47.0823 42.4268 47.0823C40.7699 47.0823 39.4268 45.7392 39.4268 44.0823Z" stroke="#A01441" stroke-width="0.4" fill="none"/></g><circle cx="36.4268" cy="62.0823" r="5" stroke="#A01441" stroke-width="0.4" fill="none"/><path d="M45.4268 75.0823 45.4268 73.7904C45.4268 72.1548 44.431 70.684 42.9124 70.0765L40.4268 69.0823 36.4268 73.0823 32.4268 69.0823 29.9412 70.0765C28.4226 70.684 27.4268 72.1548 27.4268 73.7904L27.4268 75.0823" stroke="#A01441" stroke-width="0.4" fill="none"/><circle cx="62.4268" cy="62.0823" r="5" stroke="#A01441" stroke-width="0.4" fill="none"/><path d="M71.4268 75.0823 71.4268 73.7904C71.4268 72.1548 70.431 70.684 68.9124 70.0765L66.4268 69.0823 62.4268 73.0823 58.4268 69.0823 55.9412 70.0765C54.4226 70.684 53.4268 72.1548 53.4268 73.7904L53.4268 75.0823" stroke="#A01441" stroke-width="0.4" fill="none"/><path d="M64.4268 36.0823 67.4268 39.0823 64.4268 42.0823" stroke="#A01441" stroke-width="0.4" fill="none"/><line x1="53.4268" y1="39.0823" x2="67.4268" y2="39.0823" stroke="#A01441" stroke-width="0.4" fill="none"/><path d="M48.4268 30.0823 45.4268 33.0823 48.4268 36.0823" stroke="#A01441" stroke-width="0.4" fill="none"/><line x1="59.4268" y1="33.0823" x2="45.4268" y2="33.0823" stroke="#A01441" stroke-width="0.4" fill="none"/></g><g></g><g></g><g></g><g></g><g></g><g></g><g></g><g></g><g></g><g></g><g></g></g></svg>