<svg viewBox="0 0 100 100" xmlns="http://www.w3.org/2000/svg" xmlns:xlink="http://www.w3.org/1999/xlink" id="Ebene_1" overflow="hidden"><g><g><circle cx="50.4268" cy="57.9586" r="5" stroke="#A01441" stroke-width="0.4" fill="none"/><path d="M61.4268 71.9586 61.4268 68.7605C61.4268 67.6844 60.7382 66.7291 59.7174 66.3888L55.4268 64.9586 50.4268 69.9586 45.4268 64.9586 41.1362 66.3888C40.1154 66.7291 39.4268 67.6844 39.4268 68.7605L39.4268 71.9586C39.4268 73.6155 40.7699 74.9586 42.4268 74.9586L58.4268 74.9586C60.0837 74.9586 61.4268 73.6155 61.4268 71.9586Z" stroke="#A01441" stroke-width="0.4" fill="none"/><circle cx="36.4268" cy="51.9586" r="5" stroke="#A01441" stroke-width="0.4" fill="none"/><circle cx="64.4268" cy="51.9586" r="5" stroke="#A01441" stroke-width="0.4" fill="none"/><path d="M57.4268 36.7919 51.4268 33.1253 55.4268 24.9586 43.4268 35.1253 49.4268 38.7919 45.4268 46.9586Z" stroke="#A01441" stroke-width="0.4" fill="none"/><path d="M61.4268 32.9586 67.4268 26.9586 67.4268 30.9586 71.4268 26.9586" stroke="#A01441" stroke-width="0.4" fill="none"/><path d="M39.4268 32.9586 33.4268 26.9586 33.4268 30.9586 29.4268 26.9586" stroke="#A01441" stroke-width="0.4" fill="none"/><path d="M61.4268 36.9586 67.4268 42.9586 67.4268 38.9586 73.4268 44.9586" stroke="#A01441" stroke-width="0.4" fill="none"/><path d="M39.4268 36.9586 33.4268 42.9586 33.4268 38.9586 27.4268 44.9586" stroke="#A01441" stroke-width="0.4" fill="none"/><path d="M61.4268 68.9586 72.4268 68.9586C74.0837 68.9586 75.4268 67.6155 75.4268 65.9586L75.4268 62.7605C75.4268 61.6844 74.7383 60.729 73.7174 60.3888L69.4268 58.9586 64.4268 63.9586 59.4268 58.9586 55.1363 60.3888C54.9603 60.4474 54.7986 60.5301 54.6442 60.6228" stroke="#A01441" stroke-width="0.4" fill="none"/><path d="M46.2093 60.6227C46.055 60.5301 45.8933 60.4474 45.7174 60.3888L41.4268 58.9586 36.4268 63.9586 31.4268 58.9586 27.1363 60.3888C26.1154 60.729 25.4268 61.6844 25.4268 62.7605L25.4268 65.9586C25.4268 67.6155 26.7699 68.9586 28.4268 68.9586L39.4268 68.9586" stroke="#A01441" stroke-width="0.4" fill="none"/></g><g></g><g></g><g></g><g></g><g></g><g></g><g></g><g></g><g></g><g></g><g></g></g></svg>