<svg viewBox="0 0 100 100" xmlns="http://www.w3.org/2000/svg" xmlns:xlink="http://www.w3.org/1999/xlink" id="Ebene_1" overflow="hidden"><g><g><path d="M61.86 47.3186C61.8649 47.2042 61.8773 47.0918 61.8773 46.9762 61.8773 42.5579 58.2956 38.9762 53.8773 38.9762 50.0799 38.9762 46.9075 41.6246 46.0888 45.1733 45.2181 44.4372 44.1069 43.9762 42.8773 43.9762 40.1159 43.9762 37.8773 46.2148 37.8773 48.9762 37.8773 49.6884 38.031 50.363 38.2994 50.9762L37.8773 50.9762C35.6681 50.9762 33.8773 52.767 33.8773 54.9762 33.8773 57.1853 35.6681 58.9762 37.8773 58.9762L59.8773 58.9762C63.191 58.9762 65.8773 56.2899 65.8773 52.9762 65.8773 50.3583 64.198 48.1382 61.86 47.3186Z" stroke="#A01441" stroke-width="0.4" stroke-linejoin="round" fill="none"/><circle cx="24.8773" cy="49.9762" r="4" stroke="#A01441" stroke-width="0.4" stroke-linejoin="round" fill="none"/><circle cx="36.8773" cy="70.9762" r="4" stroke="#A01441" stroke-width="0.4" stroke-linejoin="round" fill="none"/><circle cx="62.8773" cy="70.9762" r="4" stroke="#A01441" stroke-width="0.4" stroke-linejoin="round" fill="none"/><circle cx="36.8773" cy="28.9762" r="4" stroke="#A01441" stroke-width="0.4" stroke-linejoin="round" fill="none"/><circle cx="62.8773" cy="28.9762" r="4" stroke="#A01441" stroke-width="0.4" stroke-linejoin="round" fill="none"/><circle cx="74.8773" cy="49.9762" r="4" stroke="#A01441" stroke-width="0.4" stroke-linejoin="round" fill="none"/><line x1="40.8773" y1="70.9762" x2="58.8773" y2="70.9762" stroke="#A01441" stroke-width="0.4" stroke-linejoin="round" fill="none"/><line x1="26.8534" y1="53.4344" x2="34.9012" y2="67.518" stroke="#A01441" stroke-width="0.4" stroke-linejoin="round" fill="none"/><line x1="34.9012" y1="32.4344" x2="26.8534" y2="46.518" stroke="#A01441" stroke-width="0.4" stroke-linejoin="round" fill="none"/><line x1="58.8773" y1="28.9762" x2="40.8773" y2="28.9762" stroke="#A01441" stroke-width="0.4" stroke-linejoin="round" fill="none"/><line x1="72.9012" y1="46.518" x2="64.8534" y2="32.4344" stroke="#A01441" stroke-width="0.4" stroke-linejoin="round" fill="none"/><line x1="64.8534" y1="67.518" x2="72.9012" y2="53.4344" stroke="#A01441" stroke-width="0.4" stroke-linejoin="round" fill="none"/><line x1="38.9767" y1="32.3674" x2="46.3553" y2="44.2869" stroke="#A01441" stroke-width="0.4" stroke-linejoin="round" fill="none"/><line x1="55.4488" y1="58.9762" x2="60.7779" y2="67.5849" stroke="#A01441" stroke-width="0.4" stroke-linejoin="round" fill="none"/><line x1="65.0538" y1="49.9762" x2="70.8773" y2="49.9762" stroke="#A01441" stroke-width="0.4" stroke-linejoin="round" fill="none"/><line x1="28.8773" y1="49.9762" x2="37.9817" y2="49.9762" stroke="#A01441" stroke-width="0.4" stroke-linejoin="round" fill="none"/><line x1="56.4258" y1="39.3979" x2="60.7779" y2="32.3674" stroke="#A01441" stroke-width="0.4" stroke-linejoin="round" fill="none"/><line x1="38.9767" y1="67.5849" x2="44.3058" y2="58.9762" stroke="#A01441" stroke-width="0.4" stroke-linejoin="round" fill="none"/></g><g></g><g></g><g></g><g></g><g></g><g></g></g></svg>