<svg viewBox="0 0 100 100" xmlns="http://www.w3.org/2000/svg" xmlns:xlink="http://www.w3.org/1999/xlink" id="Ebene_1" overflow="hidden"><g><g><circle cx="68.9436" cy="51.0488" r="3" stroke="#A01441" stroke-width="0.4" fill="none"/><path d="M39.9436 35.3531C39.398 35.3531 38.8591 35.3815 38.3278 35.4358L36.4475 32.0488 33.4713 32.8462 33.5367 36.7299C32.5491 37.1726 31.6194 37.7161 30.7526 38.3443L27.4159 36.3423 25.2372 38.5211 27.2392 41.8577C26.6109 42.7245 26.0674 43.6543 25.6247 44.6418L21.7411 44.5765 20.9436 47.5527 21.9436 48.1079 24.3306 49.433C24.2763 49.9643 24.2479 50.5032 24.2479 51.0488 24.2479 51.5944 24.2763 52.1333 24.3306 52.6646L21.9436 53.9898 20.9436 54.5449 21.7411 57.5211 25.6247 57.4558C26.0674 58.4433 26.6109 59.3731 27.2392 60.2399L26.4838 61.4988 25.2372 63.5765 27.4159 65.7553 30.7526 63.7533C31.6194 64.3815 32.5491 64.925 33.5367 65.3677L33.4713 69.2514 36.4475 70.0488 38.3278 66.6618C38.8591 66.7161 39.398 66.7445 39.9436 66.7445 40.4892 66.7445 41.0281 66.7161 41.5594 66.6618L43.4397 70.0488 46.4159 69.2514 46.3506 65.3677C47.3381 64.925 48.2679 64.3815 49.1346 63.7533L52.4713 65.7553 54.6501 63.5765 52.6481 60.2398C53.2763 59.3731 53.8198 58.4433 54.2625 57.4558L58.1462 57.5211 58.9436 54.5449 55.5566 52.6646C55.6109 52.1333 55.6393 51.5944 55.6393 51.0488 55.6393 50.5032 55.6109 49.9643 55.5566 49.433L58.9436 47.5527 58.1462 44.5765 54.2625 44.6418C53.8198 43.6543 53.2763 42.7245 52.6481 41.8578L54.6501 38.5211 52.4713 36.3423 49.1346 38.3443C48.2679 37.7161 47.3381 37.1726 46.3506 36.7299L46.4159 32.8462 43.4397 32.0488 41.5594 35.4358C41.0281 35.3815 40.4892 35.3531 39.9436 35.3531Z" stroke="#A01441" stroke-width="0.4" fill="none"/><path d="M78.9436 53.0488 78.9436 49.0488 75.5013 48.6185C75.2241 47.8711 74.8297 47.181 74.3296 46.579L75.6757 43.3885 72.2115 41.3885 70.1175 44.1549C69.735 44.0901 69.3445 44.0488 68.9436 44.0488 68.5427 44.0488 68.1522 44.0901 67.7697 44.1549L65.6757 41.3885 62.2115 43.3885 63.5576 46.579C63.0575 47.181 62.6631 47.8711 62.3859 48.6185L58.9436 49.0488 58.9436 53.0488 62.3859 53.4791C62.6631 54.2265 63.0575 54.9166 63.5576 55.5186L62.2115 58.709 65.6757 60.709 67.7697 57.9427C68.1522 58.0075 68.5427 58.0488 68.9436 58.0488 69.3445 58.0488 69.735 58.0075 70.1175 57.9427L72.2115 60.709 75.6757 58.709 74.3296 55.5186C74.8297 54.9166 75.2241 54.2265 75.5013 53.4791L78.9436 53.0488Z" stroke="#A01441" stroke-width="0.4" fill="none"/><path d="M47.9436 58.0488 47.9436 55.6044C47.9436 54.2597 47.079 53.0583 45.8025 52.6364L43.4992 52.0488 39.9436 55.6044 36.388 52.0488 34.0847 52.6364C32.8082 53.0583 31.9436 54.2597 31.9436 55.6044L31.9436 58.0488" stroke="#A01441" stroke-width="0.4" fill="none"/><circle cx="39.9436" cy="46.0488" r="4" stroke="#A01441" stroke-width="0.4" fill="none"/></g><g></g><g></g><g></g><g></g><g></g><g></g><g></g><g></g><g></g><g></g><g></g></g></svg>