<svg viewBox="0 0 100 100" xmlns="http://www.w3.org/2000/svg" xmlns:xlink="http://www.w3.org/1999/xlink" id="Ebene_1" overflow="hidden"><g><g><path d="M43.41 57.9655C45.619 57.9655 47.41 56.1745 47.41 53.9655L47.41 41.6736C47.41 40.038 46.4142 38.5672 44.8956 37.9597L42.41 36.9655 37.41 41.9655 32.41 36.9655 29.9244 37.9597C28.4058 38.5672 27.41 40.038 27.41 41.6736L27.41 53.9655C27.41 56.1745 29.201 57.9655 31.41 57.9655" stroke="#A01441" stroke-width="0.4" fill="none"/><circle cx="37.41" cy="29.9655" r="5" stroke="#A01441" stroke-width="0.4" fill="none"/><path d="M43.41 44.9655 43.41 73.9655C43.41 74.5178 42.9623 74.9655 42.41 74.9655L32.41 74.9655C31.8577 74.9655 31.41 74.5178 31.41 73.9655L31.41 44.9655" stroke="#A01441" stroke-width="0.4" fill="none"/><line x1="37.41" y1="56.9655" x2="37.41" y2="74.9655" stroke="#A01441" stroke-width="0.4" fill="none"/><path d="M54.41 48.9655 54.41 55.9655 58.41 59.9655" stroke="#A01441" stroke-width="0.4" fill="none"/><path d="M43.41 69.7553 45.219 68.67C46.0858 69.2981 47.0155 69.8417 48.0031 70.2844L47.9378 74.168 50.9139 74.9655 52.7942 71.5785C53.3255 71.6328 53.8644 71.6611 54.41 71.6611 54.9556 71.6611 55.4945 71.6328 56.0258 71.5785L57.9061 74.9655 60.8823 74.168 60.817 70.2843C61.8045 69.8417 62.7343 69.2981 63.601 68.67L66.9378 70.6719 69.1165 68.4931 67.1145 65.1565C67.7426 64.2898 68.2862 63.36 68.7288 62.3724L72.6126 62.4378 73.41 59.4616 70.023 57.5813C70.0773 57.05 70.1057 56.5111 70.1057 55.9655 70.1057 55.4199 70.0773 54.881 70.023 54.3497L73.41 52.4694 72.6126 49.4931 68.7288 49.5585C68.2862 48.5709 67.7426 47.6412 67.1145 46.7745L69.1165 43.4378 66.9378 41.259 63.601 43.261C62.7343 42.6329 61.8045 42.0893 60.817 41.6466L60.8823 37.7629 57.9061 36.9655 56.0258 40.3525C55.4945 40.2981 54.9556 40.2698 54.41 40.2698 53.8644 40.2698 53.3255 40.2981 52.7942 40.3525L50.9139 36.9655 47.9378 37.7629 48.0031 41.6465C47.7993 41.7379 47.6088 41.8511 47.41 41.9509" stroke="#A01441" stroke-width="0.4" fill="none"/><path d="M43.5975 57.9466C44.5316 63.0746 49.0123 66.9655 54.41 66.9655 60.4851 66.9655 65.41 62.0406 65.41 55.9655 65.41 49.8904 60.4851 44.9655 54.41 44.9655 51.7507 44.9655 49.3119 45.9093 47.41 47.4801" stroke="#A01441" stroke-width="0.4" fill="none"/></g><g></g><g></g><g></g><g></g><g></g><g></g><g></g><g></g><g></g><g></g><g></g></g></svg>