<svg viewBox="0 0 100 100" xmlns="http://www.w3.org/2000/svg" xmlns:xlink="http://www.w3.org/1999/xlink" id="Ebene_1" overflow="hidden"><g><g><circle cx="39.4268" cy="37.1174" r="10" stroke="#A01441" stroke-width="0.4" fill="none"/><circle cx="39.4268" cy="34.6174" r="3.5" stroke="#A01441" stroke-width="0.4" fill="none"/><path d="M46.5624 44.1173C44.7477 42.2677 42.2228 41.1174 39.4268 41.1174 36.6308 41.1174 34.1059 42.2677 32.2912 44.1173" stroke="#A01441" stroke-width="0.4" fill="none"/><path d="M76.5624 54.1173C74.7477 52.2677 72.2228 51.1174 69.4268 51.1174 66.6308 51.1174 64.1059 52.2677 62.2912 54.1173" stroke="#A01441" stroke-width="0.4" fill="none"/><path d="M54.5624 74.1173C52.7477 72.2677 50.2228 71.1175 47.4268 71.1175 44.6308 71.1175 42.1059 72.2677 40.2912 74.1173" stroke="#A01441" stroke-width="0.4" fill="none"/><circle cx="69.4268" cy="44.6174" r="3.5" stroke="#A01441" stroke-width="0.4" fill="none"/><circle cx="47.4268" cy="64.6173" r="3.5" stroke="#A01441" stroke-width="0.4" fill="none"/><circle cx="47.4268" cy="67.1173" r="10" stroke="#A01441" stroke-width="0.4" fill="none"/><circle cx="69.4268" cy="47.1174" r="10" stroke="#A01441" stroke-width="0.4" fill="none"/><line x1="59.9448" y1="43.9568" x2="48.9088" y2="40.278" stroke="#A01441" stroke-width="0.4" fill="none"/><line x1="54.8178" y1="60.3983" x2="62.0358" y2="53.8365" stroke="#A01441" stroke-width="0.4" fill="none"/><line x1="27.4268" y1="57.1174" x2="39.4268" y2="57.1174" stroke="#A01441" stroke-width="0.4" fill="none"/><line x1="27.4268" y1="61.1174" x2="35.4268" y2="61.1174" stroke="#A01441" stroke-width="0.4" fill="none"/><path d="M67.9268 70.2383 64.5273 72.1173 65.1768 68.1329 62.4268 65.3185 66.2246 64.7383 67.9268 61.1174 69.629 64.7383 73.4268 65.3185 70.6768 68.1329 71.3263 72.1173Z" stroke="#A01441" stroke-width="0.4" fill="none"/><path d="M58.9268 32.2383 55.5273 34.1174 56.1768 30.1329 53.4268 27.3185 57.2246 26.7383 58.9268 23.1173 60.629 26.7383 64.4268 27.3185 61.6768 30.1329 62.3263 34.1174Z" stroke="#A01441" stroke-width="0.4" fill="none"/><path d="M45.4268 57.3183 45.4268 53.1174C45.4268 52.0128 44.5313 51.1174 43.4268 51.1174L23.4268 51.1174C22.3223 51.1174 21.4268 52.0128 21.4268 53.1174L21.4268 65.1173C21.4268 66.222 22.3223 67.1173 23.4268 67.1173L25.4268 67.1173 29.4268 71.1173 29.4268 67.1173 33.4268 67.1173" stroke="#A01441" stroke-width="0.4" fill="none"/></g><g></g><g></g><g></g><g></g><g></g><g></g><g></g><g></g><g></g><g></g><g></g></g></svg>