<svg viewBox="0 0 100 100" xmlns="http://www.w3.org/2000/svg" xmlns:xlink="http://www.w3.org/1999/xlink" id="Ebene_1" overflow="hidden"><g><g><circle cx="50.4268" cy="57.9991" r="5" stroke="#A01441" stroke-width="0.4" fill="none"/><circle cx="63.4268" cy="51.9991" r="5" stroke="#A01441" stroke-width="0.4" fill="none"/><circle cx="37.4268" cy="51.9991" r="5" stroke="#A01441" stroke-width="0.4" fill="none"/><path d="M57.4268 74.9991C59.0837 74.9991 60.4268 73.656 60.4268 71.9991L60.4268 68.9991C60.4268 67.4864 59.4512 66.374 58.0181 65.8907 57.3689 65.6718 55.4268 64.9991 55.4268 64.9991L50.4268 69.9991 45.4268 64.9991C45.4268 64.9991 43.4847 65.6718 42.8355 65.8907 41.4024 66.374 40.4268 67.4864 40.4268 68.9991L40.4268 71.9991C40.4268 73.656 41.7699 74.9991 43.4268 74.9991L57.4268 74.9991Z" stroke="#A01441" stroke-width="0.4" fill="none"/><path d="M46.0853 60.4348C45.7702 60.2101 45.414 60.0242 45.0181 59.8907 44.3689 59.6717 42.4268 58.9991 42.4268 58.9991L37.4268 63.9991 32.4268 58.9991C32.4268 58.9991 30.4847 59.6717 29.8355 59.8907 28.4024 60.374 27.4268 61.4864 27.4268 62.9991L27.4268 65.9991C27.4268 67.656 28.7699 68.9991 30.4268 68.9991L40.4268 68.9991" stroke="#A01441" stroke-width="0.4" fill="none"/><path d="M60.4268 68.9991 70.4268 68.9991C72.0837 68.9991 73.4268 67.656 73.4268 65.9991L73.4268 62.9991C73.4268 61.4864 72.4512 60.374 71.0181 59.8907 70.3689 59.6717 68.4268 58.9991 68.4268 58.9991L63.4268 63.9991 58.4268 58.9991C58.4268 58.9991 56.4847 59.6717 55.8355 59.8907 55.4396 60.0242 55.0834 60.2101 54.7683 60.4348" stroke="#A01441" stroke-width="0.4" fill="none"/><path d="M62.4627 47.0962C60.5265 42.3485 55.8706 38.9991 50.4268 38.9991 44.983 38.9991 40.3271 42.3485 38.3909 47.0962" stroke="#A01441" stroke-width="0.4" fill="none"/><path d="M72.8132 61.138 76.2936 61.1965 77.4268 56.9672 72.6136 54.2952C72.6909 53.5403 72.7312 52.7744 72.7312 51.9991 72.7312 51.2238 72.6909 50.4579 72.6136 49.7029L77.4268 47.031 76.2936 42.8016 70.7747 42.8944C70.1456 41.491 69.3732 40.1698 68.4805 38.9381L71.3255 34.1965 68.2294 31.1004 63.4878 33.9454C62.2561 33.0527 60.9349 32.2803 59.5315 31.6512L59.6243 26.1323 55.3949 24.9991 52.723 29.8123C51.968 29.735 51.2021 29.6947 50.4268 29.6947 49.6515 29.6947 48.8856 29.735 48.1307 29.8123L45.4587 24.9991 41.2294 26.1323 41.3222 31.6511C39.9188 32.2802 38.5976 33.0527 37.3659 33.9454L32.6243 31.1004 29.5282 34.1965 32.3732 38.9381C31.4804 40.1698 30.7081 41.491 30.079 42.8944L24.5601 42.8016 23.4268 47.031 28.24 49.7029C28.1628 50.4579 28.1225 51.2238 28.1225 51.9991 28.1225 52.7744 28.1628 53.5403 28.24 54.2952L23.4268 56.9672 24.5601 61.1965 28.0404 61.138" stroke="#A01441" stroke-width="0.4" fill="none"/></g><g></g><g></g><g></g><g></g><g></g><g></g><g></g><g></g><g></g><g></g><g></g></g></svg>