<svg viewBox="0 0 100 100" xmlns="http://www.w3.org/2000/svg" xmlns:xlink="http://www.w3.org/1999/xlink" id="Ebene_1" overflow="hidden"><g><g><path d="M34.9268 48.1614C44.9268 47.1614 49.9267 51.1614 49.9267 51.1614 49.9267 51.1614 54.9268 47.1614 64.9268 48.1614" stroke="#A01441" stroke-width="0.4" fill="none"/><path d="M64.9268 41.8931 64.9268 69.1614C64.9268 70.8183 63.5836 72.1614 61.9268 72.1614L37.9268 72.1614C36.2699 72.1614 34.9268 70.8183 34.9268 69.1614L34.9268 41.8931C34.9268 40.7783 35.5393 39.749 36.526 39.2301 44.3069 35.1385 55.5466 35.1385 63.3275 39.2301 64.3142 39.749 64.9268 40.7783 64.9268 41.8931Z" stroke="#A01441" stroke-width="0.4" fill="none"/><path d="M64.9268 44.1614 76.9268 40.1614 49.9268 26.1614 22.9268 40.1614 34.9268 44.1614" stroke="#A01441" stroke-width="0.4" fill="none"/><path d="M58.9268 62.1614C53.9562 67.4947 45.8973 67.4947 40.9268 62.1614" stroke="#A01441" stroke-width="0.4" fill="none"/><line x1="42.9268" y1="52.1614" x2="42.9268" y2="56.1614" stroke="#A01441" stroke-width="0.4" fill="none"/><line x1="49.9268" y1="72.1614" x2="49.9268" y2="76.1614" stroke="#A01441" stroke-width="0.4" fill="none"/><line x1="43.9268" y1="72.1614" x2="43.9268" y2="76.1614" stroke="#A01441" stroke-width="0.4" fill="none"/><line x1="55.9268" y1="72.1614" x2="55.9268" y2="76.1614" stroke="#A01441" stroke-width="0.4" fill="none"/><line x1="64.9268" y1="64.1614" x2="68.9268" y2="64.1614" stroke="#A01441" stroke-width="0.4" fill="none"/><line x1="64.9268" y1="58.1614" x2="68.9268" y2="58.1614" stroke="#A01441" stroke-width="0.4" fill="none"/><line x1="64.9268" y1="52.1614" x2="68.9268" y2="52.1614" stroke="#A01441" stroke-width="0.4" fill="none"/><line x1="30.9268" y1="52.1614" x2="34.9268" y2="52.1614" stroke="#A01441" stroke-width="0.4" fill="none"/><line x1="30.9268" y1="58.1614" x2="34.9268" y2="58.1614" stroke="#A01441" stroke-width="0.4" fill="none"/><line x1="30.9268" y1="64.1614" x2="34.9268" y2="64.1614" stroke="#A01441" stroke-width="0.4" fill="none"/><line x1="56.9268" y1="52.1614" x2="56.9268" y2="56.1614" stroke="#A01441" stroke-width="0.4" fill="none"/><path d="M76.9268 52.1614 72.9268 52.1614 74.9268 46.1614Z" stroke="#A01441" stroke-width="0.4" fill="none"/><line x1="74.9268" y1="40.828" x2="74.9268" y2="46.1614" stroke="#A01441" stroke-width="0.4" fill="none"/></g><g></g><g></g><g></g><g></g><g></g><g></g><g></g><g></g><g></g><g></g><g></g></g></svg>