<svg viewBox="0 0 100 100" xmlns="http://www.w3.org/2000/svg" xmlns:xlink="http://www.w3.org/1999/xlink" id="Ebene_1" overflow="hidden"><g><g><circle cx="50.2763" cy="35.3316" r="4" stroke="#A01441" stroke-width="0.4" stroke-linejoin="round" fill="none"/><line x1="50.2763" y1="57.3316" x2="50.2763" y2="71.3316" stroke="#A01441" stroke-width="0.4" stroke-linejoin="round" fill="none"/><line x1="70.2763" y1="57.3316" x2="70.2763" y2="71.3316" stroke="#A01441" stroke-width="0.4" stroke-linejoin="round" fill="none"/><line x1="30.2763" y1="57.3316" x2="30.2763" y2="71.3316" stroke="#A01441" stroke-width="0.4" stroke-linejoin="round" fill="none"/><circle cx="70.2763" cy="35.3316" r="4" stroke="#A01441" stroke-width="0.4" stroke-linejoin="round" fill="none"/><circle cx="30.2763" cy="35.3316" r="4" stroke="#A01441" stroke-width="0.4" stroke-linejoin="round" fill="none"/><path d="" stroke="#A01441" stroke-width="0.4" stroke-linejoin="round" fill="none"/><path d="" stroke="#A01441" stroke-width="0.4" stroke-linejoin="round" fill="none"/><path d="M61.2148 29.566C60.2392 29.0474 59.0283 29.4175 58.5107 30.3921L50.2763 45.3316 42.0419 30.3921C41.5243 29.4175 40.3134 29.0474 39.3378 29.566 38.3622 30.0845 37.9921 31.2955 38.5107 32.2701L45.2763 45.3316 45.2763 71.3316 55.2763 71.3316 55.2763 45.3316 62.0419 32.2701C62.5605 31.2955 62.1904 30.0845 61.2148 29.566Z" stroke="#A01441" stroke-width="0.4" stroke-linejoin="round" fill="none"/><path d="M60.2763 35.6793 65.2763 45.3316 65.2763 71.3316 75.2763 71.3316 75.2763 47.3316" stroke="#A01441" stroke-width="0.4" stroke-linejoin="round" fill="none"/><path d="M75.2763 57.3316C77.4853 57.3316 79.2763 55.5406 79.2763 53.3316L79.2763 45.3316C79.2763 43.8189 78.3036 42.4673 76.8681 41.9927L74.2763 41.3316 70.2763 45.3316 62.0419 30.3921C62.0224 30.3541 61.9726 30.2877 61.9726 30.2877" stroke="#A01441" stroke-width="0.4" stroke-linejoin="round" fill="none"/><path d="M38.582 30.2847C38.582 30.2847 38.5312 30.3531 38.5107 30.3921L30.2763 45.3316 26.2763 41.3316 23.6845 41.9927C22.249 42.4673 21.2763 43.8189 21.2763 45.3316L21.2763 53.3316C21.2763 55.5406 23.0673 57.3316 25.2763 57.3316" stroke="#A01441" stroke-width="0.4" stroke-linejoin="round" fill="none"/><path d="M25.2763 47.3316 25.2763 71.3316 35.2763 71.3316 35.2763 45.3316 40.2763 35.6793" stroke="#A01441" stroke-width="0.4" stroke-linejoin="round" fill="none"/></g><g></g><g></g><g></g><g></g><g></g><g></g></g></svg>