<svg xmlns="http://www.w3.org/2000/svg" xmlns:xlink="http://www.w3.org/1999/xlink" viewBox="0 0 449.6865 291.9487"><defs><style>.cls-1{fill:#444;}.cls-2{fill-rule:evenodd;fill:url(#linear-gradient);}.cls-3{fill:none;stroke:#fff;stroke-miterlimit:10;stroke-width:0.25px;}</style><linearGradient id="linear-gradient" x1="371.4121" y1="60.3343" x2="325.6072" y2="153.7763" gradientUnits="userSpaceOnUse"><stop offset="0" stop-color="#a01441"/><stop offset="0.4515" stop-color="#9c143d"/><stop offset="0.8717" stop-color="#911432"/><stop offset="1" stop-color="#8c142d"/></linearGradient></defs><g id="Layer_2" data-name="Layer 2"><path class="cls-1" d="M207.3208,162.5586l-13.0679-55.1294L191.19,90.7886l-2.042-13.374h-.6123q-5.0039,28.5864-6.7382,36.038l-11.74,49.106h-41.96L96.5518,46.8892h39.3051l9.3926,44.41q4.4913,22.87,5.2066,37.9781h.6123q.3062-9.392,5.6152-35.732l10.7192-46.6557h44.1035l9.8008,47.2685q4.6949,22.5637,5.9214,35.1192h.6123q.6131-7.7571,2.042-19.3462a165.4536,165.4536,0,0,1,3.1651-18.6319l10.2089-44.41h38.4883l-31.75,115.6694Z" transform="translate(-91.9502 -3.7046)"/><path class="cls-1" d="M497.9746,44.8477q18.8862,0,29.9639,15.8237,11.0757,15.8262,11.0761,43.7974,0,28.1769-11.1787,44.1542T496.749,164.6006a43.1761,43.1761,0,0,1-11.4336-1.3779,33.6752,33.6752,0,0,1-8.9336-3.8291,46.713,46.713,0,0,1-9.1367-8.167h-2.45l-6.33,11.332H427.3271V3.7046h39.918v35.936q0,6.4322-1.43,22.1538h1.43q5.8184-8.9823,13.4248-12.9653A36.7482,36.7482,0,0,1,497.9746,44.8477ZM483.375,76.19q-8.3716,0-12.251,5.8193t-3.8789,18.2744v5.6147q0,14.1915,3.8789,20.3672,3.879,6.178,12.6592,6.1768,7.0444,0,10.8223-7.1978,3.7749-7.1975,3.7773-21.1836Q498.3828,76.19,483.375,76.19Z" transform="translate(-91.9502 -3.7046)"/></g><g id="Layer_3" data-name="Layer 3"><path class="cls-1" d="M130.7588,214.6768a13.2862,13.2862,0,0,1-5.01,10.9687q-5.01,4.0078-13.9394,4.0078A32.7368,32.7368,0,0,1,97.2549,226.56v-10.125a59.9433,59.9433,0,0,0,8.8066,3.27,26.06,26.06,0,0,0,6.5918.9492,9.3735,9.3735,0,0,0,5.502-1.3711,4.69,4.69,0,0,0,1.916-4.0781,4.5022,4.5022,0,0,0-.8438-2.69,9.44,9.44,0,0,0-2.4785-2.2675,63.7365,63.7365,0,0,0-6.6621-3.48,31.5544,31.5544,0,0,1-7.0664-4.2539,15.9617,15.9617,0,0,1-3.7617-4.7461,13.5439,13.5439,0,0,1-1.4063-6.3281q0-6.82,4.6231-10.7227t12.7793-3.9023a30.178,30.178,0,0,1,7.6465.9492,52.5738,52.5738,0,0,1,7.6113,2.6719l-3.5156,8.4726a51.4326,51.4326,0,0,0-6.8028-2.3554,21.8916,21.8916,0,0,0-5.291-.668,7.0065,7.0065,0,0,0-4.7461,1.4414,4.7531,4.7531,0,0,0-1.6523,3.7617,4.6548,4.6548,0,0,0,.668,2.5137,7.338,7.338,0,0,0,2.1269,2.0742,65.66,65.66,0,0,0,6.9082,3.6035q7.2063,3.4453,9.8789,6.9082A13.4854,13.4854,0,0,1,130.7588,214.6768Z" transform="translate(-91.9502 -3.7046)"/><path class="cls-1" d="M185.085,228.95H155.4834V177.5518H185.085v8.93H166.3818v11.2852h17.4024v8.93H166.3818V219.95H185.085Z" transform="translate(-91.9502 -3.7046)"/><path class="cls-1" d="M233.0474,185.8838a11.1051,11.1051,0,0,0-9.5274,4.623q-3.375,4.6232-3.375,12.8848,0,17.1913,12.9024,17.1914a40.7876,40.7876,0,0,0,13.1132-2.707v9.1406a36.4165,36.4165,0,0,1-14.1328,2.6367q-11.2148,0-17.1562-6.8027T208.93,203.3213a31.883,31.883,0,0,1,2.9179-14.0449,21.09,21.09,0,0,1,8.3848-9.2461,24.8014,24.8014,0,0,1,12.8145-3.2168,34.5863,34.5863,0,0,1,15.0468,3.6211l-3.5156,8.8593a58.2159,58.2159,0,0,0-5.8008-2.3906A17.3063,17.3063,0,0,0,233.0474,185.8838Z" transform="translate(-91.9502 -3.7046)"/><path class="cls-1" d="M314.3384,177.5518V210.81a19.1731,19.1731,0,0,1-2.5488,9.9843,16.5914,16.5914,0,0,1-7.3653,6.5743,26.3434,26.3434,0,0,1-11.3906,2.2851q-9.9141,0-15.3984-5.08t-5.4844-13.9043V177.5518h10.8633v31.4648q0,5.9413,2.3906,8.7188t7.91,2.7773q5.3438,0,7.752-2.7949t2.4082-8.7715V177.5518Z" transform="translate(-91.9502 -3.7046)"/><path class="cls-1" d="M353.2305,209.2275V228.95H342.332V177.5518h14.9766q10.4766,0,15.5039,3.8144T377.84,192.95a13.6377,13.6377,0,0,1-2.496,8.0684,16.5171,16.5171,0,0,1-7.0665,5.5371q11.6016,17.332,15.1172,22.3945H371.3008l-12.27-19.7227Zm0-8.8593h3.5156q5.1679,0,7.6289-1.7227a6.1489,6.1489,0,0,0,2.4609-5.4141q0-3.6562-2.5136-5.2031t-7.7871-1.5469h-3.3047Z" transform="translate(-91.9502 -3.7046)"/><path class="cls-1" d="M405.2715,228.95V177.5518H416.17V228.95Z" transform="translate(-91.9502 -3.7046)"/><path class="cls-1" d="M464.3438,228.95H453.4453V186.6221h-13.957v-9.07h38.8125v9.07h-13.957Z" transform="translate(-91.9502 -3.7046)"/><path class="cls-1" d="M517.6152,198.7158l10.7227-21.164H540.08l-17.0508,31.3945V228.95H512.2012V209.2979L495.15,177.5518h11.8125Z" transform="translate(-91.9502 -3.7046)"/><path class="cls-1" d="M148.4814,294.95h-12.41l-6.9609-27q-.3874-1.4413-1.3184-5.959t-1.0723-6.0644q-.2109,1.8984-1.0547,6.1t-1.3007,5.9941l-6.9258,26.93h-12.375L91.95,243.5518h10.7227l6.5742,28.0546q1.7218,7.77,2.4961,13.4649.2109-2.0038.9668-6.2051t1.4238-6.5215l7.4883-28.7929h10.3008l7.4882,28.7929q.4923,1.9337,1.2305,5.9063t1.125,6.82q.3508-2.7421,1.125-6.8379.7726-4.0958,1.4063-6.627l6.539-28.0546H161.56Z" transform="translate(-91.9502 -3.7046)"/><path class="cls-1" d="M217.0566,269.1807q0,12.7617-6.3281,19.6172t-18.1406,6.8554q-11.8125,0-18.1406-6.8554T168.1191,269.11q0-12.8321,6.3457-19.6t18.1934-6.7675q11.847,0,18.123,6.82T217.0566,269.1807Zm-37.5117,0q0,8.6133,3.27,12.9726t9.7734,4.3594q13.043,0,13.043-17.332,0-17.3673-12.9727-17.3672-6.5046,0-9.8086,4.3769T179.5449,269.1807Z" transform="translate(-91.9502 -3.7046)"/><path class="cls-1" d="M240.9834,275.2275V294.95H230.085V243.5518h14.9765q10.4759,0,15.5039,3.8144t5.0274,11.584a13.6378,13.6378,0,0,1-2.4961,8.0684,16.5228,16.5228,0,0,1-7.0664,5.5371q11.6014,17.3321,15.1172,22.3945H259.0537l-12.2695-19.7227Zm0-8.8593h3.5156q5.1679,0,7.6289-1.7227a6.15,6.15,0,0,0,2.461-5.4141q0-3.6562-2.5137-5.2031t-7.7871-1.5469h-3.3047Z" transform="translate(-91.9502 -3.7046)"/><path class="cls-1" d="M321.3359,294.95h-12.375l-13.4648-21.6563-4.6055,3.3047V294.95H279.9922V243.5518h10.8984v23.52l4.2891-6.0469,13.9219-17.4726h12.0937l-17.93,22.7461Z" transform="translate(-91.9502 -3.7046)"/><path class="cls-1" d="M330.1807,243.5518h15.9961q10.9335,0,15.873,3.1113t4.94,9.8965a12.47,12.47,0,0,1-2.1622,7.5586,8.6368,8.6368,0,0,1-5.748,3.5507v.3516q4.8867,1.09,7.0488,4.0781a13.2676,13.2676,0,0,1,2.1621,7.9453,13.0928,13.0928,0,0,1-5.08,10.9688q-5.08,3.9375-13.7989,3.9375h-19.23Zm10.8984,20.3554h6.3281q4.43,0,6.416-1.3711a5.1139,5.1139,0,0,0,1.9864-4.5351,4.5383,4.5383,0,0,0-2.1621-4.2364q-2.1621-1.2831-6.8379-1.2832h-5.7305Zm0,8.6485V285.95h7.1016q4.5,0,6.6445-1.7227a6.3585,6.3585,0,0,0,2.1445-5.2734q0-6.3984-9.1406-6.3984Z" transform="translate(-91.9502 -3.7046)"/><path class="cls-1" d="M427.584,269.1807q0,12.7617-6.3281,19.6172t-18.1407,6.8554q-11.8125,0-18.1406-6.8554T378.6465,269.11q0-12.8321,6.3457-19.6t18.1933-6.7675q11.8478,0,18.1231,6.82T427.584,269.1807Zm-37.5117,0q0,8.6133,3.2695,12.9726t9.7734,4.3594q13.0429,0,13.043-17.332,0-17.3673-12.9727-17.3672-6.5038,0-9.8085,4.3769T390.0723,269.1807Z" transform="translate(-91.9502 -3.7046)"/><path class="cls-1" d="M487.2646,269.1807q0,12.7617-6.3281,19.6172t-18.1406,6.8554q-11.8125,0-18.1406-6.8554T438.3271,269.11q0-12.8321,6.3458-19.6t18.1933-6.7675q11.8476,0,18.1231,6.82T487.2646,269.1807Zm-37.5117,0q0,8.6133,3.27,12.9726t9.7734,4.3594q13.0429,0,13.043-17.332,0-17.3673-12.9727-17.3672-6.5038,0-9.8086,4.3769T449.7529,269.1807Z" transform="translate(-91.9502 -3.7046)"/><path class="cls-1" d="M541.6367,294.95h-12.375l-13.4648-21.6563-4.6055,3.3047V294.95H500.293V243.5518h10.8984v23.52l4.2891-6.0469,13.9218-17.4726h12.0938l-17.93,22.7461Z" transform="translate(-91.9502 -3.7046)"/></g><g id="Layer_1" data-name="Layer 1"><path class="cls-2" d="M355.1361,45.27a5.747,5.747,0,0,0-5.747,0s-9.0737,12.87-46.7067,17.0633a4.2212,4.2212,0,0,0-2.2966,1.3656,4.651,4.651,0,0,0-1.47,3.4784v65.5153c4.12,7.9132,12.0277,14.6913,26.7134,22.5989,15.5686,8.3831,23.7575,9.8694,23.7575,9.8694a5.7527,5.7527,0,0,0,5.7508,0s7.8564-.6733,24.7158-9.8694c12.4264-6.778,22.5934-14.6857,25.7437-22.5989V67.1773c0-2.0535-.8339-4.287-2.8752-4.5186C362.9088,58.14,355.1361,45.27,355.1361,45.27Z" transform="translate(-91.9502 -3.7046)"/><path class="cls-3" d="M355.0774,143.5q-18.2282,0-28.3078-9.6939-10.0812-9.6925-10.08-27.5989,0-18.4852,9.3393-28.3722t26.6656-9.8868q16.4871,0,25.4737,8.5985,8.9847,8.5989,8.9853,24.7651v11.2074H342.1305a12.489,12.489,0,0,0,4.4766,9.5968q4.218,3.4782,11.4979,3.4783a55.5348,55.5348,0,0,0,12.2051-1.2559,60.4721,60.4721,0,0,0,12.077-4.2832V138.154a44.4141,44.4141,0,0,1-12.2384,4.1865A84.6525,84.6525,0,0,1,355.0774,143.5Zm-1.4811-58.419a10.4742,10.4742,0,0,0-7.44,2.8018q-2.9943,2.8015-3.5093,8.7916h21.6415a12.5634,12.5634,0,0,0-2.9956-8.4373A9.8888,9.8888,0,0,0,353.5963,85.081Z" transform="translate(-91.9502 -3.7046)"/></g></svg>